<?xml version="1.0" standalone="no"?>
<!DOCTYPE svg PUBLIC "-//W3C//DTD SVG 20010904//EN"
 "http://www.w3.org/TR/2001/REC-SVG-20010904/DTD/svg10.dtd">
<svg version="1.0" xmlns="http://www.w3.org/2000/svg"
 width="512.000000pt" height="512.000000pt" viewBox="0 0 512.000000 512.000000"
 preserveAspectRatio="xMidYMid meet">
<metadata>
Created by potrace 1.14, written by Peter Selinger 2001-2017
</metadata>
<g transform="translate(0.000000,512.000000) scale(0.100000,-0.100000)"
fill="#000000" stroke="none">
<path d="M2315 5109 c-701 -72 -1329 -416 -1765 -965 -285 -359 -466 -787
-531 -1264 -20 -145 -18 -506 5 -665 21 -156 80 -394 131 -531 95 -258 269
-555 448 -769 420 -498 1029 -823 1679 -894 125 -14 431 -14 556 0 869 95
1633 630 2016 1413 89 181 133 298 181 479 183 694 61 1448 -329 2042 -410
624 -1038 1025 -1786 1140 -126 19 -477 28 -605 14z m1242 -978 c115 -58 162
-206 102 -321 -9 -19 -162 -179 -338 -355 -177 -176 -321 -327 -321 -336 0 -9
20 -103 45 -209 l45 -192 -81 -76 c-88 -83 -150 -164 -196 -257 -29 -57 -68
-167 -75 -210 -4 -21 -24 15 -178 309 l-73 138 -311 -311 -312 -312 27 -197
27 -197 -81 -82 c-44 -45 -84 -80 -88 -78 -3 3 -62 105 -129 227 -68 123 -132
235 -142 249 -11 17 -104 74 -245 152 -126 69 -236 132 -246 139 -16 12 -10
20 66 96 l83 82 196 -28 197 -28 311 311 312 312 -44 25 c-23 14 -287 152
-586 308 -298 155 -544 285 -546 289 -3 4 44 56 104 116 l109 109 728 -167
c400 -92 733 -167 738 -167 6 0 154 144 330 321 303 303 345 341 405 360 39
13 123 3 167 -20z m196 -1596 c263 -80 439 -349 398 -611 -34 -223 -199 -527
-464 -856 -43 -54 -82 -98 -87 -98 -5 0 -44 44 -87 98 -265 329 -430 633 -464
856 -45 286 165 571 461 626 58 11 182 4 243 -15z"/>
<path d="M3536 2165 c-102 -36 -155 -157 -112 -258 17 -43 76 -93 125 -108 82
-24 189 19 227 93 21 40 21 126 0 165 -32 62 -122 124 -178 123 -13 -1 -40 -7
-62 -15z"/>
</g>
</svg>
