<?xml version="1.0" standalone="no"?>
<!DOCTYPE svg PUBLIC "-//W3C//DTD SVG 20010904//EN"
 "http://www.w3.org/TR/2001/REC-SVG-20010904/DTD/svg10.dtd">
<svg version="1.0" xmlns="http://www.w3.org/2000/svg"
 width="700.000000pt" height="700.000000pt" viewBox="0 0 700.000000 700.000000"
 preserveAspectRatio="xMidYMid meet">
<metadata>
Created by potrace 1.14, written by Peter Selinger 2001-2017
</metadata>
<g transform="translate(0.000000,700.000000) scale(0.100000,-0.100000)"
fill="#000000" stroke="none">
<path d="M3350 6994 c-375 -25 -673 -81 -970 -182 -181 -62 -273 -100 -450
-189 -597 -298 -1098 -766 -1442 -1346 -649 -1094 -644 -2476 12 -3567 143
-239 292 -431 495 -639 573 -587 1271 -931 2100 -1037 195 -25 615 -25 810 0
707 90 1317 353 1845 797 138 116 366 348 471 479 614 768 878 1732 738 2695
-54 377 -153 694 -324 1040 -140 283 -270 481 -469 717 -584 690 -1421 1129
-2321 1217 -115 11 -414 20 -495 15z m945 -1538 c66 -30 120 -91 139 -157 20
-66 20 -92 0 -160 -15 -51 -33 -71 -380 -419 -249 -250 -364 -372 -364 -387 0
-11 29 -144 65 -294 57 -242 63 -275 49 -284 -9 -5 -50 -32 -92 -59 -90 -58
-261 -227 -312 -309 -19 -31 -37 -56 -40 -56 -3 -1 -54 94 -115 210 -60 116
-114 218 -120 225 -8 11 -83 -59 -351 -328 l-342 -343 30 -218 30 -218 -88
-92 c-49 -51 -91 -93 -94 -95 -3 -1 -75 124 -160 279 l-156 281 -276 151
c-153 84 -277 157 -278 162 0 6 40 50 88 98 l88 87 219 -30 219 -31 343 343
c266 266 340 345 330 353 -8 6 -303 161 -656 345 l-641 335 125 125 124 124
813 -187 812 -187 351 348 c192 192 364 358 380 369 74 49 179 57 260 19z
m262 -1945 c180 -51 325 -151 439 -301 43 -57 111 -209 129 -290 38 -168 15
-369 -60 -527 l-36 -74 263 -270 c145 -149 264 -273 266 -277 1 -4 -52 -61
-118 -127 l-120 -120 -208 205 c-114 113 -237 234 -274 269 l-67 65 -78 -37
c-117 -54 -176 -68 -304 -74 -286 -14 -540 111 -700 343 -145 211 -174 516
-73 756 101 242 327 423 589 474 94 18 259 11 352 -15z"/>
<path d="M4225 3167 c-68 -23 -126 -57 -177 -105 -157 -147 -183 -386 -62
-568 91 -136 270 -214 430 -187 301 52 462 373 324 644 -36 70 -117 146 -198
186 -70 35 -82 38 -176 40 -64 2 -116 -2 -141 -10z"/>
</g>
</svg>
