<?xml version="1.0" encoding="UTF-8" standalone="no"?>
<svg
   version="1.1"
   width="512"
   height="512"
   viewBox="0 0 512 512"
   id="svg19"
   sodipodi:docname="logo.svg"
   inkscape:version="1.1.1 (3bf5ae0d25, 2021-09-20)"
   inkscape:export-xdpi="1312.3101"
   inkscape:export-ydpi="1312.3101"
   xmlns:inkscape="http://www.inkscape.org/namespaces/inkscape"
   xmlns:sodipodi="http://sodipodi.sourceforge.net/DTD/sodipodi-0.dtd"
   xmlns="http://www.w3.org/2000/svg"
   xmlns:svg="http://www.w3.org/2000/svg">
  <defs
     id="defs23" />
  <sodipodi:namedview
     id="namedview21"
     pagecolor="#ffffff"
     bordercolor="#666666"
     borderopacity="1.0"
     inkscape:pageshadow="2"
     inkscape:pageopacity="0.0"
     inkscape:pagecheckerboard="0"
     showgrid="false"
     fit-margin-top="0"
     fit-margin-left="0"
     fit-margin-right="0"
     fit-margin-bottom="0"
     inkscape:zoom="1.4436328"
     inkscape:cx="63.108044"
     inkscape:cy="278.85604"
     inkscape:window-width="2560"
     inkscape:window-height="1387"
     inkscape:window-x="1912"
     inkscape:window-y="-8"
     inkscape:window-maximized="1"
     inkscape:current-layer="svg19"
     showguides="false"
     inkscape:rotation="2" />
  <circle
     style="fill:#a7489f;fill-opacity:1;fill-rule:evenodd;stroke-width:2.68226"
     id="path149"
     cx="-221.59171"
     cy="39.613319"
     r="18.897638" />
  <ellipse
     style="fill:#37b7ff;fill-opacity:1;fill-rule:evenodd;stroke-width:36.3177"
     id="path149-4"
     cx="256"
     cy="255.74451"
     rx="256"
     ry="255.74451" />
  <ellipse
     style="fill:#a7489f;fill-opacity:1;fill-rule:evenodd;stroke-width:29.4173"
     id="path149-4-2"
     cx="256"
     cy="255.74451"
     rx="207.35999"
     ry="207.15305" />
  <path
     d="m 228.2545,235.45312 17.4622,33.50153 c 7.76095,-13.58171 19.53175,-24.70574 33.63083,-32.07868 l -9.95989,-42.55598 50.31692,-50.31693 c 7.50226,-7.63162 7.50226,-20.17853 0,-27.44793 -7.50228,-7.26947 -19.91983,-7.57989 -27.42208,0 l -50.31693,50.34281 -119.00148,-27.42211 -18.23827,18.23829 96.10665,50.1876 -50.31696,50.44626 -32.07864,-4.52721 -13.71105,13.71101 41.13312,22.7655 22.89487,41.26249 13.58167,-13.71103 -4.39789,-32.33738 50.31693,-50.05824 m 89.89787,17.72091 c 32.33735,0 58.20718,25.86988 58.20718,58.20721 0,11.38277 -3.2337,22.11875 -8.92509,31.04384 l 39.83974,40.09836 -17.97971,17.97957 -40.35694,-39.71027 c -8.92515,5.562 -19.53181,8.79577 -30.78518,8.79577 -32.33734,0 -58.20726,-25.86988 -58.20726,-58.20727 0,-32.33733 25.86992,-58.20721 58.20726,-58.20721 m 0,25.86988 c -17.85021,0 -32.33734,14.48712 -32.33734,32.33733 0,17.85021 14.48713,32.33739 32.33734,32.33739 17.85021,0 32.33735,-14.48718 32.33735,-32.33739 0,-17.85021 -14.48714,-32.33733 -32.33735,-32.33733"
     id="path17"
     style="fill:#ffffff;fill-opacity:1;stroke-width:12.9348" />
  <path
     d="m -182.43,34.735812 h -17.57289 a 5.4070406,5.4070406 0 0 1 -5.40704,-5.407039 5.4070406,5.4070406 0 0 1 5.40704,-5.407042 h 0.95975 c 0.89216,-3.122567 3.77141,-5.407042 7.15082,-5.407042 a 7.4346809,7.4346809 0 0 1 7.43468,7.434682 v 0.675881 h 2.02764 a 4.0552804,4.0552804 0 0 1 4.05528,4.055279 4.0552804,4.0552804 0 0 1 -4.05528,4.055281 m 0.47311,-10.773528 c -0.91919,-4.650056 -5.01503,-8.151115 -9.93543,-8.151115 -3.90659,0 -7.29951,2.216887 -8.98921,5.447594 -4.0688,0.446082 -7.23192,3.879553 -7.23192,8.07001 a 8.1105609,8.1105609 0 0 0 8.11056,8.110559 H -182.43 a 6.7588008,6.7588008 0 0 0 6.7588,-6.758801 c 0,-3.568646 -2.77111,-6.461413 -6.28569,-6.718247 z"
     id="path2046"
     style="stroke-width:1.35177" />
  <path
     d="m -200.03258,53.638887 c 0.41044,0.410445 0.41044,1.07133 0,1.474819 l -2.70616,2.706154 1.47482,6.393204 -0.98089,0.987852 -2.6992,-5.168826 -2.71311,2.713111 0.25044,1.718304 -0.74437,0.737411 -1.22437,-2.21223 -2.21919,-1.231335 0.73741,-0.751323 1.73917,0.257398 2.69224,-2.692243 -5.16882,-2.720067 0.98785,-0.980894 6.3932,1.474819 2.70616,-2.706154 c 0.38957,-0.403489 1.08524,-0.403489 1.47482,0 z"
     id="path1990"
     style="fill:#3a4856;fill-opacity:1;stroke-width:0.695671" />
  <path
     d="m -196.06084,59.686864 h 16.77928 v 10.487052 h -16.77928 m 16.77928,2.097411 a 2.0974105,2.0974105 0 0 0 2.09741,-2.097411 V 59.686864 c 0,-1.164064 -0.94383,-2.097411 -2.09741,-2.097411 h -16.77928 c -1.16407,0 -2.09742,0.933347 -2.09742,2.097411 v 10.487052 a 2.0974105,2.0974105 0 0 0 2.09742,2.097411 h -4.19483 v 2.09741 h 25.16893 v -2.09741 z"
     id="path2092"
     style="fill:#808080;stroke-width:1.04871" />
  <path
     d="m -220.47404,51.887546 h -23.86442 v -15.90961 h 23.86442 m 0,-2.6516 h -23.86442 c -1.47164,0 -2.6516,1.179962 -2.6516,2.6516 v 15.90961 a 2.6516014,2.6516014 0 0 0 2.6516,2.651602 h 9.28061 v 2.651603 h -2.6516 v 2.6516 h 10.6064 v -2.6516 h -2.6516 v -2.651603 h 9.28061 a 2.6516014,2.6516014 0 0 0 2.6516,-2.651602 v -15.90961 c 0,-1.471638 -1.19322,-2.6516 -2.6516,-2.6516 z"
     id="path2184"
     style="fill:#a7489f;fill-opacity:1;stroke-width:1.32581" />
</svg>
