<?xml version="1.0" encoding="UTF-8" standalone="no"?>
<svg
   version="1.1"
   width="512"
   height="512"
   viewBox="0 0 512 512"
   id="svg19"
   sodipodi:docname="logo.svg"
   inkscape:version="1.1.1 (3bf5ae0d25, 2021-09-20)"
   inkscape:export-xdpi="1312.3101"
   inkscape:export-ydpi="1312.3101"
   xmlns:inkscape="http://www.inkscape.org/namespaces/inkscape"
   xmlns:sodipodi="http://sodipodi.sourceforge.net/DTD/sodipodi-0.dtd"
   xmlns="http://www.w3.org/2000/svg"
   xmlns:svg="http://www.w3.org/2000/svg">
  <defs
     id="defs23" />
  <sodipodi:namedview
     id="namedview21"
     pagecolor="#ffffff"
     bordercolor="#666666"
     borderopacity="1.0"
     inkscape:pageshadow="2"
     inkscape:pageopacity="0.0"
     inkscape:pagecheckerboard="0"
     showgrid="false"
     fit-margin-top="0"
     fit-margin-left="0"
     fit-margin-right="0"
     fit-margin-bottom="0"
     inkscape:zoom="0.51040127"
     inkscape:cx="182.76662"
     inkscape:cy="495.95759"
     inkscape:window-width="2560"
     inkscape:window-height="1387"
     inkscape:window-x="1912"
     inkscape:window-y="-8"
     inkscape:window-maximized="1"
     inkscape:current-layer="svg19"
     showguides="false"
     inkscape:rotation="1" />
  <ellipse
     style="fill:#37b7ff;fill-opacity:1;fill-rule:evenodd;stroke-width:36.3177"
     id="path149-4"
     cx="256"
     cy="255.74451"
     rx="256"
     ry="255.74451" />
  <ellipse
     style="fill:#a7489f;fill-opacity:1;fill-rule:evenodd;stroke-width:29.4173"
     id="path149-4-2"
     cx="256"
     cy="255.74451"
     rx="207.35999"
     ry="207.15305" />
  <path
     d="m 309.27999,240.81999 c -18.56,13.28 -31.84,33.44 -35.84,56.48001 l -24.64,-47.2 -62.23999,61.92 5.44,40 -16.8,16.96 -28.32,-51.04001 -50.88,-28.16 16.96,-16.96 39.68,5.60001 62.23999,-62.39999 L 96,153.94 118.56,131.38 265.75999,165.3 328,103.06 c 9.28,-9.439995 24.47999,-9.439995 33.91999,0 9.28001,9.44 9.28001,24.96 0,33.92 l -62.24001,62.24001 9.6,41.59999 M 416,312.02001 c 0,41.6 -56.00001,103.99998 -56.00001,103.99998 0,0 -56.00001,-62.39999 -56.00001,-103.99999 0,-30.4 25.60002,-56 56.00001,-56 30.40002,0 56.00001,25.6 56.00001,56 m -36.80001,1.6 c 0,-9.6 -9.59999,-19.2 -19.2,-19.2 -9.59999,0 -19.2,8 -19.2,19.2 0,9.60001 8,19.2 19.2,19.2 11.20001,0 20.8,-9.6 19.2,-19.2"
     id="path1661"
     style="stroke-width:16;fill:#ffffff" />
</svg>
